<svg xmlns="http://www.w3.org/2000/svg" viewBox="0 0 107.97 72.23"><defs><style>.cls-1{fill:#572e66;}.cls-2{fill:#fff;}</style></defs><g id="Layer_8" data-name="Layer 8"><path class="cls-1" d="M303.24,168.4s-19.85-12,11.68-15.85c7.88-1,27,3.79,27,3.79l9.79-16.56s-4.85-1.6-27-1.6C297,138.18,281.23,157.74,303.24,168.4Z" transform="translate(-285.6 -119.21)"/></g><g id="Layer_3" data-name="Layer 3"><polygon class="cls-2" points="24.01 72.23 45.31 72.23 29.04 60.08 24.01 72.23"/></g><g id="Layer_9" data-name="Layer 9"><path class="cls-2" d="M347.77,180l0-.06h.3a71.9,71.9,0,0,0,9.24-2.55c16.52-5.72,17.34-8.87,13.38-11.33H355l12.3-22.53a118.76,118.76,0,0,1,18,6.85l-5.6-27.81H361.88l-34.6,58.5A69.66,69.66,0,0,0,347.77,180Z" transform="translate(-285.6 -119.21)"/><path class="cls-2" d="M373.33,184.49l.95,6.94h19.29l-2.85-14.14A66.3,66.3,0,0,1,373.33,184.49Z" transform="translate(-285.6 -119.21)"/><path class="cls-2" d="M326,183.31l-4.81,8.12h20.47L344,187A83.46,83.46,0,0,1,326,183.31Z" transform="translate(-285.6 -119.21)"/><path class="cls-2" d="M312.78,177.77s9,3.91,22.79,3.58q5.42-6.4,5.43-16.29a17.37,17.37,0,0,0-.39-3.74,14.62,14.62,0,0,0-1-3.1,11.27,11.27,0,0,0-1.72-2.56,24.59,24.59,0,0,0-2.07-2.11,13.58,13.58,0,0,0-2.6-1.77q-1.64-.89-2.76-1.38c-.75-.33-1.75-.71-3-1.13s-2.23-.74-2.95-.94l-3-.79c-1.84-.52-3.24-.94-4.19-1.27s-2-.76-3.14-1.28a6.47,6.47,0,0,1-2.47-1.77A3.69,3.69,0,0,1,311,141a5.39,5.39,0,0,1,2.26-4.67,9.92,9.92,0,0,1,5.9-1.63,7.07,7.07,0,0,1,4.87,1.53,5.3,5.3,0,0,1,1.73,4.18,12.42,12.42,0,0,1-.1,1.38h18.2a25.45,25.45,0,0,0,.4-4.53,17.35,17.35,0,0,0-2.71-9.79,16.54,16.54,0,0,0-7.72-6.15,31.18,31.18,0,0,0-11.91-2.06,40.21,40.21,0,0,0-15.5,2.75,23,23,0,0,0-10.48,8.41,24.06,24.06,0,0,0-3.84,13.83,15.65,15.65,0,0,0,.64,4.48,13.55,13.55,0,0,0,1.58,3.54,12.05,12.05,0,0,0,2.56,2.75,21.37,21.37,0,0,0,3,2.12,21.75,21.75,0,0,0,3.59,1.57c1.47.53,2.67.92,3.59,1.18l3.74,1.09c1.84.46,3.26.85,4.28,1.18a32.43,32.43,0,0,1,3.3,1.28,6.61,6.61,0,0,1,2.61,1.87,4.09,4.09,0,0,1,.83,2.56,6.67,6.67,0,0,1-1.38,4.23,8.13,8.13,0,0,1-3.54,2.61,13.15,13.15,0,0,1-4.72.83,8.08,8.08,0,0,1-5.51-1.72,6,6,0,0,1-2-4.77,6.11,6.11,0,0,1,.2-1.58h-18.8a24,24,0,0,0-.49,4.72q0,9,6.44,14.13t17.57,5.16c9.06,0,16.42-2.18,22.11-6.49A82.56,82.56,0,0,1,312.78,177.77Z" transform="translate(-285.6 -119.21)"/></g></svg>